<?xml version="1.0" encoding="UTF-8"?>
<svg data-bbox="0 0 91.91 14.393" viewBox="0 0 91.91 14.39" xmlns="http://www.w3.org/2000/svg" data-type="color">
    <g>
        <path fill="#f36f26" d="M0 4.13C0 1.45 1.43 0 4.1 0s4.09 1.45 4.09 4.13v3.58c0 2.69-1.43 4.13-4.09 4.13S0 10.4 0 7.71zm1.55 3.39c0 2 .84 3 2.55 3s2.54-1 2.54-3v-3.2c0-2-.84-3-2.54-3s-2.55 1-2.55 3z" data-color="1"/>
        <path fill="#f36f26" d="M14.82 6.25c0-1.45-.54-2.1-1.76-2.1s-1.76.65-1.76 2.1v5.06a.28.28 0 0 1-.32.32h-.78a.28.28 0 0 1-.32-.32V6.09a2.86 2.86 0 0 1 3.18-3.18 2.86 2.86 0 0 1 3.18 3.18v5.22a.28.28 0 0 1-.32.32h-.78a.28.28 0 0 1-.32-.32z" data-color="1"/>
        <path fill="#f36f26" d="M24.52 7.54a.29.29 0 0 1-.33.33h-4.61v.49c0 1.57.64 2.24 2.08 2.24a2.56 2.56 0 0 0 1.74-.7c.16-.16.31-.16.47 0l.34.43a.33.33 0 0 1 0 .47 3.59 3.59 0 0 1-2.58 1c-2.3 0-3.46-1.12-3.46-3.34v-2.3c0-2.12 1.12-3.25 3.19-3.25S24.52 4 24.52 6.16zm-1.36-.86v-.36c0-1.5-.57-2.17-1.79-2.17s-1.79.67-1.79 2.17v.36z" data-color="1"/>
        <path fill="#f36f26" d="M28.12 5.18h4.52c.23 0 .33.1.33.33v.7c0 .23-.1.33-.33.33h-4.52v3.74h5.28c.22 0 .33.1.33.32v.71c0 .22-.11.32-.33.32h-6.51a.28.28 0 0 1-.32-.32V.53a.28.28 0 0 1 .32-.32h6.51c.22 0 .33.1.33.32v.71a.29.29 0 0 1-.33.33h-5.28z" data-color="1"/>
        <path fill="#f36f26" d="M46.37 6.08v5.23a.28.28 0 0 1-.32.32h-.78a.28.28 0 0 1-.32-.32v-5.1c0-1.43-.54-2.06-1.66-2.06s-1.63.69-1.63 2.06v5.1c0 .22-.11.32-.33.32h-.77c-.23 0-.33-.1-.33-.32v-5.1c0-1.37-.55-2.06-1.65-2.06S37 4.84 37 6.21v5.1c0 .22-.1.32-.33.32h-.77c-.23 0-.33-.1-.33-.32V6.08c0-2 1-3.17 3-3.17A2.61 2.61 0 0 1 41 4.06a2.61 2.61 0 0 1 2.43-1.15c1.89 0 2.94 1.09 2.94 3.17z" data-color="1"/>
        <path fill="#f36f26" d="M54.65 8.59c0 2.12-1.07 3.25-3 3.25a2.37 2.37 0 0 1-2-.86v3.08a.29.29 0 0 1-.33.33h-.77c-.23 0-.33-.1-.33-.33v-7.9a2.91 2.91 0 0 1 3.25-3.25 2.9 2.9 0 0 1 3.24 3.25zM53.22 6.3c0-1.46-.57-2.15-1.81-2.15s-1.82.69-1.82 2.15v2.13c0 1.45.6 2.17 1.82 2.17s1.81-.67 1.81-2.17z" data-color="1"/>
        <path fill="#f36f26" d="M62.48 8.61a2.91 2.91 0 0 1-3.26 3.23A2.9 2.9 0 0 1 56 8.61V6.16a2.9 2.9 0 0 1 3.23-3.25 2.92 2.92 0 0 1 3.26 3.25zm-1.43-2.29c0-1.5-.57-2.17-1.83-2.17s-1.8.67-1.8 2.17v2.13c0 1.46.56 2.15 1.8 2.15s1.83-.69 1.83-2.15z" data-color="1"/>
        <path fill="#f36f26" d="M74.33 3.12c.26 0 .35.12.28.36l-2.33 7.88a.34.34 0 0 1-.39.27H71a.34.34 0 0 1-.39-.27l-1.6-5.61-1.61 5.61a.36.36 0 0 1-.4.27h-.84c-.23 0-.35-.08-.4-.27l-2.31-7.88c-.07-.24 0-.36.28-.36h.86a.33.33 0 0 1 .36.27l1.65 6.08 1.75-6.06a.37.37 0 0 1 .4-.29h.55a.37.37 0 0 1 .4.29l1.73 6 1.67-6a.33.33 0 0 1 .36-.27z" data-color="1"/>
        <path fill="#f36f26" d="M81.66 7.54a.29.29 0 0 1-.33.33h-4.61v.49c0 1.57.64 2.24 2.08 2.24a2.57 2.57 0 0 0 1.74-.7c.16-.16.31-.16.47 0l.34.43a.33.33 0 0 1 0 .47 3.59 3.59 0 0 1-2.58 1c-2.31 0-3.46-1.12-3.46-3.34v-2.3c0-2.12 1.12-3.25 3.19-3.25S81.66 4 81.66 6.16zm-1.36-.86v-.36c0-1.5-.57-2.17-1.79-2.17s-1.79.67-1.79 2.17v.36z" data-color="1"/>
        <path fill="#f36f26" d="M83.41 6c0-2.08 1-3.11 2.86-3.11a3.4 3.4 0 0 1 1.91.51.3.3 0 0 1 .1.47l-.29.5c-.12.19-.27.2-.46.08a2.12 2.12 0 0 0-1.12-.32c-1 0-1.57.63-1.57 1.89v5.27c0 .22-.1.32-.33.32h-.77c-.22 0-.33-.1-.33-.32z" data-color="1"/>
        <path fill="#f36f26" d="M90.07 3.27a.05.05 0 0 1 .06.06v.1a.05.05 0 0 1-.06.06h-.34v1.14a.05.05 0 0 1-.06.06h-.12a.05.05 0 0 1-.06-.06V3.49h-.33a.05.05 0 0 1-.06-.06v-.1a.05.05 0 0 1 .06-.06zm1.77 0s.07 0 .07.06v1.3s0 .06-.07.06h-.12a.05.05 0 0 1-.06-.06V3.57l-.42 1.07a.07.07 0 0 1-.07.05h-.07a.09.09 0 0 1-.1-.05l-.4-1.06v1a.05.05 0 0 1-.06.06h-.11a.05.05 0 0 1-.06-.06V3.33a.05.05 0 0 1 .06-.06h.24a.07.07 0 0 1 .07.06l.39 1 .38-1a.08.08 0 0 1 .08-.06z" data-color="1"/>
    </g>
</svg>
